<svg width="288" height="288" xmlns="http://www.w3.org/2000/svg"><svg xmlns="http://www.w3.org/2000/svg" width="288" height="288" version="1.0" viewBox="0 0 512 512"><path d="m162 3-3 3v41l3 3c5 5 11 3 14-3 2-4 2-37 0-42-3-6-9-7-14-2zm115 45c-4 1-26 23-29 28-4 6 0 13 7 13 3 0 6-2 18-15l16-17c1-7-6-13-13-9zM50 50c-2 1-3 3-3 6s1 4 15 18c13 13 15 15 18 15 4 0 9-5 9-9 0-3-2-5-15-18-14-14-15-15-18-15s-5 1-6 3zm327-1c-1 1-1 3 1 12 8 28 10 49 10 79a232 232 0 0 1-26 109 259 259 0 0 1-232 148c-22 0-38-1-60-5-16-3-18-1-10 10A247 247 0 1 0 388 51c-7-4-9-5-11-2zm80 92c3 2 19 31 19 36 0 3-2 6-5 8-7 2-10-1-15-11l-7-14c-6-10-6-14-3-17s8-4 11-2zm30 74c4 4 6 21 6 51 0 21 0 26-2 37-4 25-13 53-18 57-3 3-8 3-11-1l-3-5 4-13c13-37 17-76 11-112-2-10-2-12 2-15 3-3 8-3 11 1z" fill="#fff" class="color000 svgShape"/><path d="M157 89c-29 4-53 23-63 50-4 10-5 17-5 30 0 30 16 56 44 70 11 5 18 7 31 8 24 1 45-8 62-25 15-17 22-36 21-59-2-34-25-62-57-71-10-3-25-4-34-3zm17 19c3 4 3 9 0 13-2 2-4 2-11 3-20 2-37 18-39 39-1 7-1 9-3 11-4 3-9 3-12-1-2-1-3-3-3-7 0-8 3-20 7-27 5-9 18-22 26-26 7-4 19-7 26-7 5 0 7 0 9 2zM3 163c-5 5-4 11 3 14 4 2 37 2 42-1 6-2 7-8 2-13l-3-3H6l-3 3zm283 0c-4 3-4 9 0 12 2 2 2 2 23 2s21 1 23-2c4-3 4-9 0-13-2-2-2-2-23-2s-21 0-23 3zM77 248c-5 2-28 25-29 29-2 2-2 3-1 6 2 4 5 6 9 6 2 0 5-3 17-15l16-17c1-7-6-13-13-9zm174 0c-3 1-5 6-4 9l15 17c13 14 14 14 18 14 5 0 9-3 9-8 0-4-1-5-15-19-15-15-18-16-23-14zm-89 38c-3 2-3 2-3 23s0 21 3 24 9 3 12-1c2-2 2-2 2-23s1-21-2-23c-3-4-9-4-13 0z" fill="#fff" class="color000 svgShape"/></svg></svg>