<svg version="1.0" xmlns="http://www.w3.org/2000/svg" width="682.667" height="682.667" viewBox="0 0 512 512"><path d="M161.9 2.9 159 5.8v41.4l2.9 2.9c4.7 4.6 11.2 3.4 13.6-2.6 2.1-4.8 2.1-37.1.1-42-2.6-6.2-8.9-7.4-13.7-2.6zM276.5 47.6c-3.7 1.8-25.8 23.6-28.6 28.1-3.7 6 .4 13.3 7.4 13.3 2.6 0 5.3-2.2 17.9-14.8 8.2-8.1 15.1-15.7 15.5-17 1.7-7-5.7-13-12.2-9.6zM49.5 49.5C47.7 51.2 47 53 47 55.7c0 3.5 1 4.7 14.8 18.5C74.8 87.3 77 89 79.9 89c4.5 0 9.1-4.6 9.1-9.1 0-2.9-1.7-5.1-14.8-18.1C60.4 48 59.2 47 55.7 47c-2.7 0-4.5.7-6.2 2.5zM376.9 48.6c-1.1 1.4-.9 3.3 1.5 12.3 7.7 28.4 10.1 48.6 9.4 78.8-.6 24-2.4 37.4-7.8 58.9-4.8 19-9.2 31-18.4 49.9-26.3 54.3-68.1 96.1-122.6 122.4-18.5 8.9-30.6 13.3-49.4 18.1-21.4 5.4-34.9 7.2-59.1 7.7-22.8.6-38.9-.8-60.3-4.9-16.5-3.2-18.4-1.3-10.6 10.5 67.6 102.5 202.7 138.7 313.9 84.2 49.4-24.1 88.9-63.6 113-113 11.6-23.5 18.9-47.3 23.2-74.5 2.5-16 2.4-51.7-.1-68.5-2-14-8.1-38.6-12.4-50-20.5-55.2-58.4-100.4-109-129.8-6.9-4.1-9.3-4.5-11.3-2.1zm80 92.4c3.6 1.9 19.1 31 19.1 35.7 0 3.7-1.8 6.3-5.5 7.9-6.1 2.5-9.5-.1-14.3-10.6-1.6-3.6-5-10.1-7.6-14.5-5.3-9.3-5.9-13.3-2.1-17 2.5-2.6 7.2-3.3 10.4-1.5zm30 73.7c4.4 4.5 6.6 21.6 6.6 51.8-.1 20.3-.4 25.9-2.3 36.5-4.4 24.9-13.1 52.5-17.8 56.7-3.5 3.2-7.9 3-11.5-.6-1.6-1.6-2.9-3.8-2.9-4.9 0-1 1.8-7 4.1-13.2 13-36.7 16.7-75.9 10.4-112.3-1.8-9.9-1.5-11.8 2.2-14.7 3.6-2.8 7.9-2.6 11.2.7z"/><path d="M156.5 89.1c-28.6 4.4-52.2 23.2-62.8 49.9-3.8 9.8-5.1 17.4-5 29.5.3 30.5 16.6 56.6 43.8 70 11.5 5.7 18.4 7.5 31.5 8.2 23.8 1.3 45.2-7.4 61.6-24.9 15.3-16.4 22.3-35.7 21.1-58.3-1.7-34.1-24.2-62.4-56.8-71.9-9.9-2.8-24.4-3.9-33.4-2.5zm17 19.4c3.7 3.6 3.7 8.6.1 12.3-1.9 1.9-4 2.6-10.2 3.3-20.9 2.3-37 18.4-39.3 39.4-.7 6.1-1.4 8.2-3.3 10.1-3.7 3.6-8.7 3.6-12.3-.1-2-2-2.5-3.4-2.5-7.8 0-7.3 3.3-19.5 7.2-27 4.3-8.2 17.3-21.2 25.5-25.5 7.7-4 18.9-7.1 26.6-7.1 4.9-.1 6.2.3 8.2 2.4zM2.9 161.9c-4.8 4.8-3.6 11.1 2.6 13.7 4.9 2 37.2 2 42-.1 6-2.4 7.2-8.9 2.6-13.6l-2.9-2.9H5.8l-2.9 2.9zM285.5 161.5c-3.5 3.4-3.4 9.3.1 12.6 2.5 2.4 2.7 2.4 23.4 2.4s20.9 0 23.4-2.4c3.5-3.3 3.6-9.2.1-12.6-2.4-2.5-2.4-2.5-23.5-2.5s-21.1 0-23.5 2.5zM76.5 247.6c-4.2 2.1-27.2 25.2-29 29.1-1.4 2.8-1.4 3.6-.1 6.7 1.6 3.9 4.2 5.6 8.2 5.6 2.2 0 5.7-3 17.6-14.8 8.2-8.1 15.1-15.7 15.5-17 1.7-7-5.7-13-12.2-9.6zM250.9 247.5c-3.2 1.7-5.2 6.3-4.4 9.7.4 1.3 7.1 8.9 15.1 16.9 13.7 13.7 14.6 14.4 18.4 14.4 5.4 0 8.5-3.1 8.5-8.5 0-3.9-.7-4.7-14.5-18.5-15.4-15.4-18-16.9-23.1-14zM161.5 285.5c-2.5 2.4-2.5 2.4-2.5 23.5s0 21.1 2.5 23.5c3.4 3.5 9.3 3.4 12.6-.1 2.4-2.5 2.4-2.7 2.4-23.4s0-20.9-2.4-23.4c-3.3-3.5-9.2-3.6-12.6-.1z"/></svg>