<svg version="1.0" xmlns="http://www.w3.org/2000/svg" width="682.667" height="682.667" viewBox="0 0 512 512"><path d="M87.7 1.6C46.7 9 14.5 38.8 3.2 79.5l-2.7 10v333l2.7 10c10.4 37.7 38.6 65.9 76.3 76.3l10 2.7h333l10-2.7c37.7-10.4 65.9-38.7 76.2-76.3l2.8-10 .3-80.2c.3-79.8.3-80.2-1.8-84.3-1.5-3-3.3-4.7-6.3-6.1-5.3-2.3-7.1-2.3-12.4 0-8.3 3.8-7.7-2.5-8.4 87.1-.4 57.6-.9 80.7-1.8 84-8.1 30.2-29.6 51.4-59.1 58.2-8 1.9-324 1.9-332 0-29.9-6.9-52.3-29.3-59.2-59.2-1.9-8-1.9-324 0-332 5.8-25.3 24-46.7 47-55.4 13.3-5 11.3-4.9 94.7-5.5 87.9-.7 82.4-.2 86.1-7.4 3.8-7.1 1.3-15.7-5.6-19.6-3.7-2.1-4.4-2.1-80.6-2-61.7.1-78.5.4-84.7 1.5z"/><path d="M351.1 1.7c-10 5.1-10.6 18.7-1.2 25l3.4 2.3h109.2L348.9 142.7c-62.6 62.6-114.2 114.8-114.8 116-3 6 .1 15.8 5.9 18.8 3.4 1.8 10.2 2 13.3.4 1.2-.6 53.4-52.2 116-114.8L483 49.5v109.2l2.3 3.4c6.3 9.4 19.9 8.8 24.9-1.2 1.7-3.1 1.8-8.9 1.8-76.4s-.1-73.3-1.8-76.4c-.9-1.9-3-4.4-4.5-5.5-2.8-2.1-3.8-2.1-77-2.4-69.1-.2-74.4-.1-77.6 1.5z"/></svg>