<svg version="1.0" xmlns="http://www.w3.org/2000/svg" width="682.667" height="682.667" viewBox="0 0 512 512"><path d="M224.7 12.5C120.4 25.1 33.4 100.6 8 200.5c-5.9 23.4-7.4 35.6-7.4 61-.1 12.9.5 25.9 1.3 31.5 10.8 78.3 53.6 143.1 121.2 184.1 20.6 12.4 47.9 23.9 57 23.9 4.5 0 5.5-.4 8.5-3.4 2.2-2.2 3.4-4.4 3.5-6.3.2-4-.3-44.8-.4-44.9-.1-.1-4.2.5-9.2 1.3-10.8 1.7-27.3 1.2-36-1.2-11.5-3-20.2-7.9-27.9-15.8-6.4-6.3-8.1-9-14.4-21.7-8.3-16.9-13.8-24.4-23-30.8-14.2-10-16.5-14.4-8.7-17.1 3.1-1 5.4-1.1 10.3-.3 13.6 2.2 25.9 10.9 35.5 25.1 12 17.8 21.9 24.7 38.9 27.1 7.8 1.1 18.5-.1 28.5-3.1 7.1-2.2 7.1-2.2 9.8-13.1 1.8-7 6.7-16.3 11.1-20.9l2.5-2.6-6.3-.7c-10.3-1.2-29.3-5.5-38.6-8.8-16.8-5.9-27.6-12.3-39.5-23.7-22.2-21.2-32.6-52-31.4-93.1.4-14.1.9-17.8 3.1-25.5 3.6-12.1 8.8-22.3 16.4-32.3 4.8-6.4 6-8.6 5.3-10-2.1-4-4.1-16.8-4.1-26.1 0-10.7 1.8-21.9 5-31.7 2.5-7.3 3.8-7.8 14.5-6.3 13.6 1.9 33 9.9 50.6 20.9 7.1 4.5 8 4.8 11.1 3.9 8.4-2.4 30.9-5.9 45-6.9 22.8-1.7 53.8 1 73.7 6.4l5.4 1.5 9.1-5.6c17.5-10.8 35.8-18.3 49.5-20.3 10.8-1.5 11.7-1 14.5 7.9 1.3 4.2 2.9 11.1 3.6 15.4 1.7 10.3.8 29.3-1.7 37.2l-1.9 6 4.6 5.6c15 18.7 21.2 37.6 21.1 64.5-.1 67.1-30.4 105.4-93 117.9-6.4 1.2-14.2 2.6-17.4 3l-5.8.7 3.5 3.8c4.3 4.8 8.8 13.5 11.2 21.6 1.5 5.1 1.8 12.2 2.3 50.4.5 33.4.9 45.1 1.9 46.7 1.7 3.1 6.3 5.3 10.8 5.3 9.3 0 45.3-16.3 65.9-29.7 16.5-10.9 29.9-21.9 43.5-35.9 38.5-39.5 61.5-86.9 69.1-142.4 2-14.4 1.7-50.7-.5-65.5-17.2-114-108.1-201.5-223.4-215-15.4-1.8-46.4-1.8-61.5 0z"/></svg>