<svg width="288" height="288" xmlns="http://www.w3.org/2000/svg"><svg xmlns="http://www.w3.org/2000/svg" width="288" height="288" version="1.0" viewBox="0 0 128 128"><path d="M15 26c-6 2-6 4-6 37 0 28 0 30 2 33 1 2 3 3 6 4h94c3-1 5-2 6-4 2-3 2-5 2-33 0-34 0-35-6-38-5-2-93-2-98 0zm89 7C89 48 65 68 64 68L24 33l-5-4h90l-5 4zM40 55l3 3-14 16-15 16V34c1-1 5 2 12 8l14 13zm74 7-1 28-13-16-14-16c-1-2 26-25 27-24l1 28zm-59 6 9 7 8-6 9-7a190 190 0 0 1 28 33H19l13-17 15-16 8 6z" fill="#fff" class="color000 svgShape"/></svg></svg>